<?xml version="1.0" encoding="utf-8"?>
<!-- Generator: Adobe Illustrator 25.0.0, SVG Export Plug-In . SVG Version: 6.00 Build 0)  -->
<svg version="1.1" id="Layer_1" xmlns="http://www.w3.org/2000/svg" xmlns:xlink="http://www.w3.org/1999/xlink" x="0px" y="0px"
	 viewBox="0 0 208.28 122.35" style="enable-background:new 0 0 208.28 122.35;" xml:space="preserve">
<style type="text/css">
	.st0{fill:#0443C0;}
	.st1{fill:#A8A8A8;}
	.st2{fill:#F04B25;}
</style>
<g>
	<defs>
		<path id="SVGID_1_" d="M40.11,39.51H5.38c-0.01,0-0.01,0-0.01,0.01v26.13c0,0.01,0,0.01,0.01,0.01h31.87
			c5.38,0,9.98,4.16,10.2,9.54c0.23,5.63-4.22,10.28-9.79,10.37L5.38,86.03c0,0-0.01,0-0.01,0.01v27.43c0,0.01,0,0.01,0.01,0.01
			h34.73c20.43,0,36.98-16.56,36.98-36.98v0C77.09,56.07,60.53,39.51,40.11,39.51z"/>
	</defs>
	<use xlink:href="#SVGID_1_"  style="overflow:visible;fill:#0443C0;"/>
	<clipPath id="SVGID_2_">
		<use xlink:href="#SVGID_1_"  style="overflow:visible;"/>
	</clipPath>
</g>
<g>
	<path class="st0" d="M163.88,56.3v-5.44h1.06c0.8,0,1.09,0.14,1.09,1.19v3.11c0,1.11-0.35,1.14-0.99,1.14H163.88z M164.97,47.92
		h-1.09V43.2H165c0.67,0,0.93,0.11,0.93,1v2.72C165.93,47.83,165.61,47.92,164.97,47.92z M168.46,49.03c0.93-0.64,1.63-1.17,1.63-3
		v-2.19c0-2.86-1.79-3.97-4.1-3.97h-6.25v19.7h6.25c3.27,0,4.16-1.41,4.16-3.97v-3.14C170.16,50.3,169.68,49.55,168.46,49.03z"/>
	<polygon class="st0" points="172.3,59.57 180.63,59.57 180.63,55.85 176.44,55.85 176.44,51.36 180.63,51.36 180.63,47.64 
		176.44,47.64 176.44,43.59 180.63,43.59 180.63,39.87 172.3,39.87 	"/>
	<path class="st0" d="M187.87,39.59c-3.91,0-5.16,1.44-5.16,3.83v2.47c0,1.61,0.77,2.89,2.05,3.77l3.17,2.08
		c0.93,0.58,1.09,0.8,1.09,2.14v1.75c0,0.75-0.1,0.92-1.09,0.92c-0.93,0-1.09-0.22-1.09-0.92v-3.08h-4.13v3.61
		c0,2.66,1.79,3.63,5.19,3.63c3.52,0,5.25-1.08,5.25-3.63v-3.02c0-1.61-0.54-2.89-1.89-3.8l-3.56-2.36
		c-0.61-0.36-0.86-0.75-0.86-1.5v-1.75c0-0.67,0.19-0.89,1.09-0.89c0.93,0,1.09,0.22,1.09,0.89v2.69h4.13v-3.05
		C193.16,41.17,191.91,39.59,187.87,39.59z"/>
	<polygon class="st0" points="194.98,39.87 194.98,43.45 197.8,43.45 197.8,59.57 201.93,59.57 201.93,43.45 204.72,43.45 
		204.72,39.87 	"/>
</g>
<g>
	<rect x="159.75" y="66.67" class="st0" width="3.58" height="19.7"/>
	<polygon class="st0" points="171.98,66.67 171.98,74.49 172.2,78.05 169.15,66.67 165.52,66.67 165.52,86.37 168.87,86.37 
		168.87,78.49 168.65,74.97 171.93,86.37 175.34,86.37 175.34,66.67 	"/>
	<path class="st0" d="M181.11,83.15V69.92h0.75c0.97,0,1.14,0.42,1.14,1.11v10.99c0,0.8-0.17,1.14-1.14,1.14H181.11z M181.97,66.67
		h-4.44v19.7h4.44c3.8,0,4.49-1.47,4.49-4.22V70.89C186.46,68.22,185.38,66.67,181.97,66.67z"/>
	<rect x="188.54" y="66.67" class="st0" width="3.58" height="19.7"/>
	<path class="st0" d="M198.59,71.5h0.19l0.78,8.88h-1.86L198.59,71.5z M200.09,86.37h3.88l-2.55-19.7h-5.19l-2.52,19.7h3.41
		l0.31-3.11h2.39L200.09,86.37z"/>
</g>
<g>
	<polygon class="st0" points="167.93,102.77 171.01,93.09 167.1,93.09 164.88,101.03 164.6,101.03 164.6,93.09 161.02,93.09 
		161.02,112.79 164.6,112.79 164.6,104.77 164.88,104.77 167.21,112.79 171.15,112.79 	"/>
	<path class="st0" d="M176.95,97.92h0.19l0.78,8.88h-1.86L176.95,97.92z M178.44,112.79h3.88l-2.55-19.7h-5.19l-2.52,19.7h3.41
		l0.31-3.11h2.39L178.44,112.79z"/>
	<path class="st0" d="M187.46,102.58v-6.3h0.8c0.89,0,1.08,0.22,1.08,1v4.19c0,1-0.22,1.11-1.08,1.11H187.46z M188.29,105.49
		c0.53,0,0.53,0.25,0.64,1.14l0.78,6.16h3.52l-0.86-5.85c-0.22-1.39-0.33-2.05-0.8-2.52c0.89-0.75,1.39-1.8,1.39-3.08v-3.86
		c0-2.83-0.89-4.38-4.94-4.38h-4.13v19.7h3.61v-7.3H188.29z"/>
	<polygon class="st0" points="194.62,93.09 194.62,96.67 197.06,96.67 197.06,112.79 200.64,112.79 200.64,96.67 203.05,96.67 
		203.05,93.09 	"/>
</g>
<g>
	<path class="st1" d="M162.26,118.69c0.2,0,0.4-0.03,0.59-0.09c0.19-0.06,0.34-0.13,0.44-0.23v-0.52h-0.91v-0.58H164v1.37
		c-0.2,0.2-0.45,0.36-0.77,0.48c-0.32,0.11-0.65,0.17-1,0.17c-0.4,0-0.75-0.08-1.03-0.23c-0.28-0.15-0.49-0.37-0.64-0.66
		c-0.15-0.29-0.22-0.64-0.22-1.05c0-0.61,0.16-1.08,0.49-1.41c0.33-0.33,0.8-0.49,1.41-0.49c0.44,0,0.8,0.08,1.07,0.24
		s0.48,0.4,0.59,0.73l-0.72,0.22c-0.08-0.19-0.2-0.33-0.37-0.43c-0.17-0.1-0.36-0.15-0.58-0.15c-0.37,0-0.65,0.11-0.84,0.33
		s-0.29,0.54-0.29,0.95c0,0.42,0.1,0.75,0.3,0.98C161.63,118.58,161.9,118.69,162.26,118.69z"/>
	<path class="st1" d="M165.48,117.84v1.42h-0.78v-3.73h1.86c0.44,0,0.79,0.1,1.03,0.29c0.24,0.19,0.36,0.47,0.36,0.82
		c0,0.26-0.07,0.49-0.22,0.68s-0.35,0.31-0.6,0.37l1.01,1.57h-0.88l-0.86-1.42H165.48z M167.17,116.67c0-0.18-0.06-0.31-0.17-0.4
		c-0.11-0.09-0.29-0.13-0.52-0.13h-1v1.1h1.02c0.22,0,0.38-0.05,0.5-0.15C167.11,116.99,167.17,116.85,167.17,116.67z"/>
	<path class="st1" d="M172.24,117.37c0,0.39-0.08,0.73-0.23,1.02c-0.16,0.29-0.38,0.52-0.66,0.68c-0.28,0.16-0.61,0.24-1,0.24
		c-0.39,0-0.72-0.08-1-0.23c-0.28-0.16-0.5-0.38-0.65-0.67c-0.15-0.29-0.22-0.63-0.22-1.03c0-0.4,0.07-0.74,0.22-1.02
		c0.15-0.28,0.36-0.5,0.65-0.65c0.28-0.15,0.62-0.23,1.01-0.23c0.39,0,0.73,0.08,1.01,0.23s0.5,0.37,0.65,0.65
		S172.24,116.98,172.24,117.37z M171.44,117.37c0-0.4-0.1-0.72-0.29-0.95c-0.19-0.23-0.46-0.34-0.8-0.34
		c-0.35,0-0.62,0.11-0.81,0.34c-0.19,0.23-0.29,0.54-0.29,0.95c0,0.27,0.04,0.51,0.13,0.7c0.09,0.2,0.21,0.35,0.38,0.46
		c0.16,0.11,0.36,0.16,0.58,0.16c0.35,0,0.62-0.11,0.81-0.34C171.35,118.12,171.44,117.79,171.44,117.37z"/>
	<path class="st1" d="M174.87,117.05l-0.51,2.21h-0.93l-0.96-3.73h0.79l0.52,2.28c0.02,0.1,0.05,0.21,0.08,0.34s0.05,0.25,0.07,0.37
		c0.02-0.08,0.03-0.16,0.05-0.24c0.01-0.08,0.03-0.16,0.05-0.23c0.02-0.08,0.03-0.15,0.05-0.23l0.53-2.28h0.87l0.52,2.2
		c0.02,0.07,0.04,0.18,0.06,0.32s0.05,0.3,0.07,0.46c0.02-0.1,0.04-0.19,0.06-0.27c0.02-0.08,0.04-0.16,0.06-0.24
		c0.02-0.08,0.04-0.17,0.06-0.27l0.48-2.21h0.79l-0.96,3.73h-0.93l-0.51-2.16c-0.03-0.13-0.06-0.26-0.08-0.39
		c-0.03-0.13-0.05-0.27-0.07-0.41c-0.01,0.08-0.03,0.16-0.05,0.27c-0.02,0.1-0.04,0.2-0.06,0.29
		C174.89,116.94,174.88,117.01,174.87,117.05z"/>
	<path class="st1" d="M181.49,117.05l-0.51,2.21h-0.93l-0.96-3.73h0.79l0.52,2.28c0.02,0.1,0.05,0.21,0.08,0.34s0.05,0.25,0.07,0.37
		c0.02-0.08,0.03-0.16,0.05-0.24c0.01-0.08,0.03-0.16,0.05-0.23c0.02-0.08,0.03-0.15,0.05-0.23l0.53-2.28h0.87l0.52,2.2
		c0.02,0.07,0.04,0.18,0.06,0.32c0.03,0.14,0.05,0.3,0.07,0.46c0.02-0.1,0.04-0.19,0.06-0.27c0.02-0.08,0.04-0.16,0.06-0.24
		c0.02-0.08,0.04-0.17,0.06-0.27l0.48-2.21h0.79l-0.96,3.73h-0.93l-0.51-2.16c-0.03-0.13-0.06-0.26-0.08-0.39
		c-0.03-0.13-0.05-0.27-0.07-0.41c-0.01,0.08-0.03,0.16-0.05,0.27c-0.02,0.1-0.04,0.2-0.06,0.29
		C181.51,116.94,181.49,117.01,181.49,117.05z"/>
	<path class="st1" d="M185.34,115.53v3.73h-0.78v-3.73H185.34z"/>
	<path class="st1" d="M187.74,116.13v3.12h-0.78v-3.12h-1.2v-0.6h3.19v0.6H187.74z"/>
	<path class="st1" d="M190.15,117.66v1.6h-0.78v-3.73h0.78v1.48h1.62v-1.48h0.78v3.73h-0.78v-1.6H190.15z"/>
	<path class="st1" d="M196.33,119.31c-0.34,0-0.63-0.06-0.87-0.17c-0.24-0.11-0.42-0.28-0.54-0.49c-0.12-0.22-0.18-0.48-0.18-0.79
		v-2.33h0.78v2.27c0,0.29,0.07,0.52,0.21,0.67c0.14,0.15,0.35,0.23,0.62,0.23c0.28,0,0.49-0.08,0.64-0.24
		c0.15-0.16,0.22-0.39,0.22-0.69v-2.24H198v2.29c0,0.31-0.07,0.58-0.2,0.8c-0.13,0.22-0.32,0.39-0.57,0.51
		C196.99,119.25,196.69,119.31,196.33,119.31z"/>
	<path class="st1" d="M201.74,118.18c0,0.36-0.14,0.64-0.41,0.84c-0.27,0.19-0.67,0.29-1.19,0.29c-0.94,0-1.49-0.34-1.65-1.02
		l0.75-0.12c0.05,0.2,0.15,0.34,0.3,0.43c0.15,0.09,0.35,0.13,0.62,0.13c0.27,0,0.48-0.04,0.61-0.12c0.14-0.08,0.2-0.21,0.2-0.37
		c0-0.11-0.03-0.19-0.09-0.26c-0.06-0.07-0.15-0.13-0.26-0.17c-0.06-0.02-0.14-0.05-0.25-0.08c-0.11-0.03-0.24-0.06-0.41-0.09
		c-0.19-0.04-0.33-0.08-0.44-0.11c-0.11-0.03-0.19-0.06-0.25-0.09s-0.13-0.06-0.19-0.1c-0.13-0.08-0.24-0.19-0.31-0.32
		c-0.07-0.13-0.11-0.3-0.11-0.49c0-0.34,0.13-0.59,0.38-0.77c0.25-0.18,0.62-0.27,1.1-0.27c0.46,0,0.81,0.07,1.04,0.22
		c0.23,0.14,0.38,0.38,0.45,0.72l-0.76,0.1c-0.04-0.16-0.12-0.28-0.24-0.36c-0.12-0.08-0.29-0.12-0.51-0.12
		c-0.24,0-0.41,0.04-0.53,0.11c-0.12,0.07-0.18,0.19-0.18,0.33c0,0.1,0.03,0.18,0.08,0.24c0.05,0.06,0.12,0.11,0.22,0.16
		c0.09,0.04,0.29,0.1,0.6,0.16c0.18,0.04,0.33,0.08,0.46,0.11c0.13,0.03,0.23,0.07,0.31,0.1c0.08,0.03,0.15,0.07,0.21,0.11
		c0.06,0.04,0.11,0.08,0.16,0.12c0.09,0.09,0.16,0.19,0.21,0.31C201.71,117.89,201.74,118.02,201.74,118.18z"/>
</g>
<path class="st2" d="M5.37,3.77v29.37h26.04v-3.33C31.41,15.43,19.75,3.77,5.37,3.77L5.37,3.77z"/>
<g>
	<defs>
		<path id="SVGID_3_" d="M140.2,39.51h-36.58c0,0,0,0-0.01,0l-27.96,30.5l-0.01,6.48l0.01,6.48l27.96,30.5c0,0,0,0,0.01,0h36.58
			c0.01,0,0.01-0.01,0.01-0.02l-34.87-36.97l34.87-36.97C140.21,39.52,140.21,39.51,140.2,39.51z"/>
	</defs>
	<use xlink:href="#SVGID_3_"  style="overflow:visible;fill:#0443C0;"/>
	<clipPath id="SVGID_4_">
		<use xlink:href="#SVGID_3_"  style="overflow:visible;"/>
	</clipPath>
</g>
<g>
	<path class="st0" d="M146.5,114.79V40.53c0-0.38,0.26-0.73,0.63-0.79c0.48-0.08,0.89,0.29,0.89,0.75v74.67
		C147.35,115.92,146.5,115.46,146.5,114.79z"/>
</g>
</svg>
